<svg width="79" height="88" viewBox="0 0 79 88" fill="none" xmlns="http://www.w3.org/2000/svg">
<path d="M27.5204 83.1478H55.6158C64.4746 83.1478 69.2838 74.6663 71.393 69.5969L72.6586 65.9899H77.8052L67.9338 87.6322H0.943785L2.71556 83.0503H5.24667C5.33104 83.0503 5.33104 83.0503 5.41541 83.0503C5.75289 83.0503 6.09038 83.0503 6.42786 83.0503H8.36838C11.5744 82.9528 15.0336 81.7829 17.396 74.8613C17.6491 74.1789 17.8179 73.5939 18.071 73.1065L24.7362 53.414L10.3933 14.9063C10.0558 14.3213 9.80267 13.5414 9.46519 12.7615C7.69341 7.98464 5.07793 6.52232 3.13741 6.03488H0.690674V0.965515H23.8925V6.03488H22.7957C22.7113 6.03488 22.627 6.03488 22.627 6.03488C20.6864 6.03488 18.6616 6.13237 19.9271 9.54444C20.0115 9.73942 20.0115 9.93439 20.0959 10.0319L30.3047 37.3285L35.8731 20.853C36.5481 18.2209 35.4513 17.3435 34.3544 17.1485H31.5702L33.6795 11.4942H57.8094L55.7001 17.1485H51.9035C50.2161 17.6359 48.0224 19.1957 46.1663 23.4852L36.0418 52.829L41.1884 66.4773L41.2728 66.5748C41.5259 67.3547 41.9478 67.7447 42.5384 66.5748C42.5384 66.4773 42.6227 66.4773 42.6227 66.3798L62.7872 15.1012C62.956 14.5163 63.2091 13.8339 63.5466 13.054C65.6558 7.69217 63.5466 6.32734 61.8592 6.03488H58.9062V0.965515H78.3114V6.03488H75.1053C73.8398 6.32734 71.8992 7.20474 70.1275 10.2269L43.2977 78.5658L34.1857 78.3708L30.5578 68.817L26.3393 81.1005C26.3393 81.198 26.3393 81.2955 26.2549 81.393C25.9174 82.7578 26.508 83.1478 27.5204 83.1478Z" fill="#1B140F"/>
</svg>
