<svg width="26" height="26" viewBox="0 0 26 26" fill="none" xmlns="http://www.w3.org/2000/svg">
<path d="M1 1H1.36325C2.00458 1 2.32581 1 2.58739 1.11397C2.81802 1.21446 3.0152 1.37623 3.15739 1.58138C3.3184 1.81367 3.37653 2.12386 3.49258 2.74303L6.41467 18.3334L20.5222 18.3333C21.1356 18.3333 21.4433 18.3333 21.6974 18.2266C21.9219 18.1322 22.1155 17.9795 22.2593 17.7853C22.4218 17.5656 22.4907 17.2716 22.6284 16.6841L22.6294 16.6799L24.7536 7.61328L24.754 7.61138C24.9628 6.72021 25.0675 6.27354 24.9526 5.92318C24.8517 5.61576 24.6396 5.35512 24.3581 5.18923C24.0371 5 23.5733 5 22.6432 5H4.38414M21.3048 25C20.5572 25 19.9512 24.403 19.9512 23.6667C19.9512 22.9303 20.5572 22.3333 21.3048 22.3333C22.0524 22.3333 22.6585 22.9303 22.6585 23.6667C22.6585 24.403 22.0524 25 21.3048 25ZM7.76828 25C7.02067 25 6.41462 24.403 6.41462 23.6667C6.41462 22.9303 7.02067 22.3333 7.76828 22.3333C8.51588 22.3333 9.12193 22.9303 9.12193 23.6667C9.12193 24.403 8.51588 25 7.76828 25Z" stroke="white" stroke-width="2" stroke-linecap="round" stroke-linejoin="round"/>
<path d="M1 1H1.36325C2.00458 1 2.32581 1 2.58739 1.11397C2.81802 1.21446 3.0152 1.37623 3.15739 1.58138C3.3184 1.81367 3.37653 2.12386 3.49258 2.74303L6.41467 18.3334L20.5222 18.3333C21.1356 18.3333 21.4433 18.3333 21.6974 18.2266C21.9219 18.1322 22.1155 17.9795 22.2593 17.7853C22.4218 17.5656 22.4907 17.2716 22.6284 16.6841L22.6294 16.6799L24.7536 7.61328L24.754 7.61138C24.9628 6.72021 25.0675 6.27354 24.9526 5.92318C24.8517 5.61576 24.6396 5.35512 24.3581 5.18923C24.0371 5 23.5733 5 22.6432 5H4.38414M21.3048 25C20.5572 25 19.9512 24.403 19.9512 23.6667C19.9512 22.9303 20.5572 22.3333 21.3048 22.3333C22.0524 22.3333 22.6585 22.9303 22.6585 23.6667C22.6585 24.403 22.0524 25 21.3048 25ZM7.76828 25C7.02067 25 6.41462 24.403 6.41462 23.6667C6.41462 22.9303 7.02067 22.3333 7.76828 22.3333C8.51588 22.3333 9.12193 22.9303 9.12193 23.6667C9.12193 24.403 8.51588 25 7.76828 25Z" stroke="#535353" stroke-width="2" stroke-linecap="round" stroke-linejoin="round"/>
</svg>
