<svg width="155" height="125" viewBox="0 0 155 125" fill="none" xmlns="http://www.w3.org/2000/svg">
<ellipse cx="6.27632" cy="6.57895" rx="6.27632" ry="6.57895" fill="#A67BDE"/>
<ellipse cx="41.829" cy="6.57895" rx="6.27632" ry="6.57895" fill="#A67BDE"/>
<ellipse cx="41.829" cy="43.7369" rx="6.27632" ry="6.57895" fill="#A67BDE"/>
<ellipse cx="77.3815" cy="43.7369" rx="6.27632" ry="6.57895" fill="#A67BDE"/>
<ellipse cx="112.934" cy="43.7369" rx="6.27632" ry="6.57895" fill="#A67BDE"/>
<ellipse cx="112.934" cy="80.8949" rx="6.27632" ry="6.57895" fill="#A67BDE"/>
<ellipse cx="41.829" cy="80.8949" rx="6.27632" ry="6.57895" fill="#A67BDE"/>
<ellipse cx="77.3815" cy="80.8949" rx="6.27632" ry="6.57895" fill="#A67BDE"/>
<ellipse cx="77.3815" cy="6.57895" rx="6.27632" ry="6.57895" fill="#A67BDE"/>
<ellipse cx="112.934" cy="6.57895" rx="6.27632" ry="6.57895" fill="#A67BDE"/>
<ellipse cx="148.487" cy="6.57895" rx="6.27632" ry="6.57895" fill="#A67BDE"/>
<ellipse cx="148.487" cy="43.7369" rx="6.27632" ry="6.57895" fill="#A67BDE"/>
<ellipse cx="148.487" cy="80.8949" rx="6.27632" ry="6.57895" fill="#A67BDE"/>
<ellipse cx="148.487" cy="118.053" rx="6.27632" ry="6.57895" fill="#A67BDE"/>
<ellipse cx="112.934" cy="118.053" rx="6.27632" ry="6.57895" fill="#A67BDE"/>
<ellipse cx="77.3815" cy="118.053" rx="6.27632" ry="6.57895" fill="#A67BDE"/>
<ellipse cx="41.829" cy="118.053" rx="6.27632" ry="6.57895" fill="#A67BDE"/>
<ellipse cx="6.27632" cy="118.053" rx="6.27632" ry="6.57895" fill="#A67BDE"/>
<ellipse cx="6.27632" cy="80.8949" rx="6.27632" ry="6.57895" fill="#A67BDE"/>
<ellipse cx="6.27632" cy="43.7369" rx="6.27632" ry="6.57895" fill="#A67BDE"/>
</svg>
