<svg width="92" height="78" viewBox="0 0 92 78" fill="none" xmlns="http://www.w3.org/2000/svg">
<path fill-rule="evenodd" clip-rule="evenodd" d="M46.0732 71.8735C41.3297 74.8621 35.7238 76.8544 29.6866 76.8544C17.6123 76.8544 6.8316 69.3831 1.22566 57.9272L5.96915 54.9387L10.7126 51.9502C14.5937 59.4214 21.9245 64.4023 30.1178 64.4023C32.7052 64.4023 35.2925 63.9042 37.4487 62.908C32.2739 56.4329 29.2554 47.4674 29.2554 38.0038C29.2554 28.5402 32.2739 20.0728 37.0174 13.0996C34.8613 12.6015 32.2739 12.1034 29.6866 12.1034C21.4933 12.1034 14.1624 17.0843 10.2814 25.0536L0.794434 19.5747C0.794434 19.5747 0.794434 19.5747 0.794434 19.0766C6.8316 8.11876 17.6123 0.149414 29.6866 0.149414C35.7238 0.149414 41.3297 2.14175 46.0732 5.13026C50.8167 2.14175 56.4226 0.149414 62.4598 0.149414C74.5341 0.149414 85.3148 8.11876 91.3519 19.5747C91.3519 19.5747 91.3519 19.5747 91.3519 20.0728L81.865 25.5517C77.9839 17.5824 70.2218 12.6015 62.4598 12.6015C59.8724 12.6015 57.2851 13.0996 55.1289 14.0958C59.8724 20.5709 62.891 29.5364 62.891 39C62.891 48.4636 59.8724 56.931 54.6977 63.9042C56.8538 64.9004 59.4412 65.3985 62.0285 65.3985C70.2218 65.3985 77.1215 60.4176 81.4337 52.9463L86.1772 55.9348L90.9207 58.9234C85.3148 70.3793 74.5341 77.8506 62.4598 77.8506C55.9914 76.8544 50.3854 74.8621 46.0732 71.8735ZM46.0732 56.4329C42.1921 51.9502 39.6048 45.4751 39.6048 38.5019C39.6048 31.5287 41.7609 25.0536 46.0732 20.5709C49.9542 25.0536 52.5416 31.5287 52.5416 38.5019C52.1103 45.4751 49.9542 51.9502 46.0732 56.4329Z" fill="#161413"/>
</svg>
