<svg width="91" height="78" viewBox="0 0 91 78" fill="none" xmlns="http://www.w3.org/2000/svg">
<path fill-rule="evenodd" clip-rule="evenodd" d="M45.3246 71.8735C40.5811 74.8621 34.9752 76.8544 28.938 76.8544C16.8637 76.8544 6.08306 69.3831 0.477124 57.9272L5.22061 54.9387L9.96409 51.9502C13.8451 59.4214 21.176 64.4023 29.3692 64.4023C31.9566 64.4023 34.5439 63.9042 36.7001 62.908C31.5254 56.4329 28.5068 47.4674 28.5068 38.0038C28.5068 28.5402 31.5254 20.0728 36.2688 13.0996C34.1127 12.6015 31.5254 12.1034 28.938 12.1034C20.7447 12.1034 13.4139 17.0843 9.53286 25.0536L0.0458984 19.5747C0.0458984 19.5747 0.0458984 19.5747 0.0458984 19.0766C6.08306 8.11876 16.8637 0.149414 28.938 0.149414C34.9752 0.149414 40.5811 2.14175 45.3246 5.13026C50.0681 2.14175 55.674 0.149414 61.7112 0.149414C73.7855 0.149414 84.5661 8.11876 90.6033 19.5747C90.6033 19.5747 90.6033 19.5747 90.6033 20.0728L81.1163 25.5517C77.2353 17.5824 69.4732 12.6015 61.7112 12.6015C59.1238 12.6015 56.5364 13.0996 54.3803 14.0958C59.1238 20.5709 62.1424 29.5364 62.1424 39C62.1424 48.4636 59.1238 56.931 53.9491 63.9042C56.1052 64.9004 58.6926 65.3985 61.2799 65.3985C69.4732 65.3985 76.3728 60.4176 80.6851 52.9463L85.4286 55.9348L90.1721 58.9234C84.5661 70.3793 73.7855 77.8506 61.7112 77.8506C55.2428 76.8544 49.6368 74.8621 45.3246 71.8735ZM45.3246 56.4329C41.4436 51.9502 38.8562 45.4751 38.8562 38.5019C38.8562 31.5287 41.0123 25.0536 45.3246 20.5709C49.2056 25.0536 51.793 31.5287 51.793 38.5019C51.3617 45.4751 49.2056 51.9502 45.3246 56.4329Z" fill="#161413"/>
</svg>
