<svg width="327" height="79" viewBox="0 0 327 79" fill="none" xmlns="http://www.w3.org/2000/svg">
<path d="M17.9599 62.2784C14.5484 56.0818 12.4161 47.6022 12.4161 39.4488C12.4161 31.4585 14.2641 23.7943 17.5335 17.2716L17.9599 16.4562C21.2294 8.95509 28.479 3.89998 35.5864 3.89998C40.2774 3.89998 45.1104 5.53066 48.9485 7.81361C55.9138 12.7057 61.4576 20.2068 64.5849 29.0125V15.6409C64.5849 12.7057 60.6047 9.28123 60.6047 9.28123C53.7815 3.57384 45.3947 0.149414 36.2972 0.149414C32.6013 0.149414 27.4839 1.29089 27.4839 1.29089C11.9897 5.20452 0.475586 20.8591 0.475586 39.4488C0.475586 59.3431 13.5533 75.813 30.4691 77.9329C30.4691 77.9329 33.8806 78.5852 36.2972 78.4221C46.1055 78.4221 55.203 74.5085 62.3105 67.8227L63.3055 66.6812C64.1584 65.3766 64.727 63.746 64.727 62.1153V51.0267C64.727 47.7653 66.1485 44.8301 68.2808 43.0363H49.9435C52.0757 44.8301 53.4972 47.7653 53.4972 51.0267L53.6394 61.463C53.6394 63.5829 52.9286 65.3766 51.7914 66.8443C50.37 68.8011 44.684 72.0624 44.684 72.0624C41.9832 73.6931 38.8559 74.6715 35.4443 74.6715C27.7682 74.3454 21.2294 69.4533 17.9599 62.2784Z" fill="#1B1B1B"/>
<path d="M154.772 39.2858C154.772 57.8755 166.286 73.2039 181.496 76.9545C181.496 76.9545 186.614 78.096 190.31 78.096C199.407 78.096 207.652 74.8346 214.475 69.1272C214.475 69.1272 218.597 66.192 218.597 63.2568L220.161 49.0698C215.47 62.4414 207.51 67.4965 202.961 70.4318C199.123 72.7147 194.148 74.3454 189.599 74.3454C182.491 74.3454 175.242 69.7795 171.972 62.2784L171.546 61.463C168.277 54.9403 166.429 47.4392 166.429 39.2858C166.429 31.2954 168.277 23.6312 171.546 17.1085L171.972 16.2932C175.242 8.79202 182.491 3.73691 189.599 3.73691C194.29 3.73691 199.123 5.36759 202.961 7.65055C209.926 12.5426 215.47 20.0437 218.597 28.8494V15.4778C218.597 12.5426 214.617 9.11816 214.617 9.11816C207.794 3.41078 199.407 0.149414 190.31 0.149414C186.614 0.149414 181.496 1.29089 181.496 1.29089C166.144 4.87839 154.772 20.5329 154.772 39.2858Z" fill="#1B1B1B"/>
<path d="M232.063 39.2858C232.063 57.8755 243.577 73.2039 258.787 76.9545C258.787 76.9545 263.904 78.096 267.6 78.096C276.698 78.096 284.942 74.8346 291.765 69.1272C291.765 69.1272 295.888 66.192 295.888 63.0937L297.451 48.9068C292.76 62.2784 284.8 67.3335 280.251 70.2687C276.413 72.5517 271.438 74.1823 266.889 74.1823C259.782 74.1823 252.532 69.4534 249.263 62.1153L248.836 61.3C245.567 54.7772 243.719 47.2761 243.719 39.1227C243.719 31.1324 245.567 23.4682 248.836 16.9454L249.263 16.1301C252.532 8.62896 259.782 3.57384 266.889 3.57384C271.58 3.57384 276.413 5.20453 280.251 7.48748C287.217 12.3795 292.76 19.8807 295.888 28.6863V15.6409C295.888 12.7057 291.908 9.28123 291.908 9.28123C285.227 3.57384 276.84 0.149414 267.742 0.149414C264.046 0.149414 258.929 1.29089 258.929 1.29089C243.577 5.04146 232.063 20.696 232.063 39.2858Z" fill="#1B1B1B"/>
<path d="M326.98 3.57117H309.353C311.486 5.36492 312.907 8.13707 312.907 11.3984V70.266C312.907 73.3643 311.628 76.2996 309.495 77.9302H326.695C324.705 76.1365 323.284 73.3643 323.284 70.266V11.3984C323.426 8.13707 324.705 5.20185 326.98 3.57117Z" fill="#1B1B1B"/>
<path d="M97.8091 3.57117H80.1826C82.3149 5.36492 83.7363 8.30014 83.7363 11.5615V55.5899C84.3049 63.5802 88.7116 70.4291 94.824 73.6904C99.7992 76.4626 105.343 78.0933 111.313 78.0933C117.284 78.0933 123.112 76.6257 128.087 73.6904H128.229C134.341 70.4291 138.748 63.5802 139.317 55.5899V11.2354C139.317 7.97401 140.738 5.20185 142.87 3.57117H132.636C134.768 5.36492 136.189 7.97401 136.189 11.2354V55.5899V55.753C135.763 60.645 133.631 64.8848 130.646 67.82L130.503 67.9831C127.092 71.0814 120.979 73.3643 115.151 73.3643C111.598 73.3643 108.186 72.549 104.917 71.0814L104.632 70.9183C98.9463 68.6353 94.824 62.6018 94.1132 55.4268V55.2638V11.5615C94.1132 8.13707 95.6769 5.20185 97.8091 3.57117Z" fill="#1B1B1B"/>
</svg>
