<svg width="164" height="79" viewBox="0 0 164 79" fill="none" xmlns="http://www.w3.org/2000/svg">
<path fill-rule="evenodd" clip-rule="evenodd" d="M130.559 0.149414L154.667 76.0281H163.031V76.5976H136.586V76.0281H144.335L136.463 51.1148H120.226L120.349 51.3996C120.964 53.535 121.333 55.9551 121.333 58.2329V67.6288C121.333 72.4691 123.178 77.3094 126.623 77.3094C128.714 77.3094 130.313 76.4552 132.281 74.4621L132.527 74.7469C130.436 77.3094 127.853 78.4483 123.916 78.4483C120.964 78.4483 118.504 77.5941 116.536 76.0281L116.167 75.7434C113.584 73.4656 111.862 69.6218 111.124 64.4968L111.001 63.6427L110.878 62.3614V62.0767L106.45 76.0281H112.723V76.5976H99.562V76.0281H105.958L110.878 60.6531C110.878 59.7989 110.755 58.8024 110.755 57.9482V51.3996C110.755 43.1426 105.466 38.4447 96.2409 38.4447H87.1388V76.1705H95.0109V76.7399H64.3834V76.1705H72.1325L64.2603 51.2572H42.2429L34.3708 75.8858H34.7398C45.072 73.8927 49.7461 64.7816 49.8691 55.2433H50.3611V76.8823H0.545166L37.5689 3.28137H22.6856C10.3853 3.28137 4.72724 14.2432 4.60424 25.205H4.23523V2.71192H49.1311L48.8851 3.28137L12.1074 76.1705H31.4187C31.9107 76.1705 32.4028 76.1705 32.8948 76.1705C33.2638 76.1705 33.5098 76.1705 33.8788 76.0281H34.0018L57.9872 0.149414H58.4792L77.4216 59.9413V3.28137H69.6724V2.71192H96.4869C109.402 2.71192 118.381 10.3994 118.381 21.3613C118.381 29.3335 112.231 36.0245 103.129 37.8752L101.407 38.1599L103.129 38.3023C108.664 39.0141 113.092 41.0072 116.167 44.1391L130.067 0.149414H130.559ZM119.98 50.5454L136.094 50.6878L125.269 16.6634L116.413 44.7086L116.905 45.278C118.258 46.7016 119.242 48.5523 119.98 50.5454ZM87.1388 37.8752V3.28137H94.0269C103.252 3.28137 108.172 9.54528 108.172 21.5036C108.172 34.1738 105.343 38.0176 96.2409 38.0176C96.2409 37.8752 87.1388 37.8752 87.1388 37.8752ZM53.3131 16.521L42.4889 50.5454H64.1373L53.3131 16.521Z" fill="black"/>
</svg>
