<svg width="327" height="79" viewBox="0 0 327 79" fill="none" xmlns="http://www.w3.org/2000/svg">
<path d="M17.7087 62.2784C14.2971 56.0818 12.1649 47.6022 12.1649 39.4488C12.1649 31.4585 14.0128 23.7943 17.2823 17.2716L17.7087 16.4562C20.9781 8.95509 28.2278 3.89998 35.3352 3.89998C40.0261 3.89998 44.8592 5.53066 48.6972 7.81361C55.6626 12.7057 61.2064 20.2068 64.3337 29.0125V15.6409C64.3337 12.7057 60.3535 9.28123 60.3535 9.28123C53.5303 3.57384 45.1435 0.149414 36.046 0.149414C32.3501 0.149414 27.2327 1.29089 27.2327 1.29089C11.7385 5.20452 0.224365 20.8591 0.224365 39.4488C0.224365 59.3431 13.3021 75.813 30.2178 77.9329C30.2178 77.9329 33.6294 78.5852 36.046 78.4221C45.8543 78.4221 54.9518 74.5085 62.0593 67.8227L63.0543 66.6812C63.9072 65.3766 64.4758 63.746 64.4758 62.1153V51.0267C64.4758 47.7653 65.8973 44.8301 68.0295 43.0363H49.6923C51.8245 44.8301 53.246 47.7653 53.246 51.0267L53.3882 61.463C53.3882 63.5829 52.6774 65.3766 51.5402 66.8443C50.1187 68.8011 44.4328 72.0624 44.4328 72.0624C41.7319 73.6931 38.6047 74.6715 35.1931 74.6715C27.517 74.3454 20.9781 69.4533 17.7087 62.2784Z" fill="#1B1B1B"/>
<path d="M154.521 39.2858C154.521 57.8755 166.035 73.2039 181.245 76.9545C181.245 76.9545 186.362 78.096 190.058 78.096C199.156 78.096 207.4 74.8346 214.224 69.1272C214.224 69.1272 218.346 66.192 218.346 63.2568L219.91 49.0698C215.219 62.4414 207.258 67.4965 202.71 70.4318C198.871 72.7147 193.896 74.3454 189.348 74.3454C182.24 74.3454 174.99 69.7795 171.721 62.2784L171.295 61.463C168.025 54.9403 166.177 47.4392 166.177 39.2858C166.177 31.2954 168.025 23.6312 171.295 17.1085L171.721 16.2932C174.99 8.79202 182.24 3.73691 189.348 3.73691C194.038 3.73691 198.871 5.36759 202.71 7.65055C209.675 12.5426 215.219 20.0437 218.346 28.8494V15.4778C218.346 12.5426 214.366 9.11816 214.366 9.11816C207.543 3.41078 199.156 0.149414 190.058 0.149414C186.362 0.149414 181.245 1.29089 181.245 1.29089C165.893 4.87839 154.521 20.5329 154.521 39.2858Z" fill="#1B1B1B"/>
<path d="M231.812 39.2858C231.812 57.8755 243.326 73.2039 258.536 76.9545C258.536 76.9545 263.653 78.096 267.349 78.096C276.446 78.096 284.691 74.8346 291.514 69.1272C291.514 69.1272 295.637 66.192 295.637 63.0937L297.2 48.9068C292.509 62.2784 284.549 67.3335 280 70.2687C276.162 72.5517 271.187 74.1823 266.638 74.1823C259.531 74.1823 252.281 69.4534 249.012 62.1153L248.585 61.3C245.316 54.7772 243.468 47.2761 243.468 39.1227C243.468 31.1324 245.316 23.4682 248.585 16.9454L249.012 16.1301C252.281 8.62896 259.531 3.57384 266.638 3.57384C271.329 3.57384 276.162 5.20453 280 7.48748C286.965 12.3795 292.509 19.8807 295.637 28.6863V15.6409C295.637 12.7057 291.656 9.28123 291.656 9.28123C284.975 3.57384 276.589 0.149414 267.491 0.149414C263.795 0.149414 258.678 1.29089 258.678 1.29089C243.326 5.04146 231.812 20.696 231.812 39.2858Z" fill="#1B1B1B"/>
<path d="M326.729 3.57117H309.102C311.234 5.36492 312.656 8.13707 312.656 11.3984V70.266C312.656 73.3643 311.376 76.2996 309.244 77.9302H326.444C324.454 76.1365 323.033 73.3643 323.033 70.266V11.3984C323.175 8.13707 324.454 5.20185 326.729 3.57117Z" fill="#1B1B1B"/>
<path d="M97.5579 3.57117H79.9314C82.0636 5.36492 83.4851 8.30014 83.4851 11.5615V55.5899C84.0537 63.5802 88.4603 70.4291 94.5728 73.6904C99.548 76.4626 105.092 78.0933 111.062 78.0933C117.032 78.0933 122.86 76.6257 127.836 73.6904H127.978C134.09 70.4291 138.497 63.5802 139.065 55.5899V11.2354C139.065 7.97401 140.487 5.20185 142.619 3.57117H132.384C134.517 5.36492 135.938 7.97401 135.938 11.2354V55.5899V55.753C135.512 60.645 133.379 64.8848 130.394 67.82L130.252 67.9831C126.841 71.0814 120.728 73.3643 114.9 73.3643C111.346 73.3643 107.935 72.549 104.665 71.0814L104.381 70.9183C98.6951 68.6353 94.5728 62.6018 93.862 55.4268V55.2638V11.5615C93.862 8.13707 95.4256 5.20185 97.5579 3.57117Z" fill="#1B1B1B"/>
</svg>
