<svg width="164" height="79" viewBox="0 0 164 79" fill="none" xmlns="http://www.w3.org/2000/svg">
<path fill-rule="evenodd" clip-rule="evenodd" d="M130.81 0.149414L154.918 76.0281H163.282V76.5976H136.837V76.0281H144.586L136.714 51.1148H120.478L120.601 51.3996C121.216 53.535 121.585 55.9551 121.585 58.2329V67.6288C121.585 72.4691 123.43 77.3094 126.874 77.3094C128.965 77.3094 130.564 76.4552 132.532 74.4621L132.778 74.7469C130.687 77.3094 128.104 78.4483 124.168 78.4483C121.216 78.4483 118.756 77.5941 116.788 76.0281L116.419 75.7434C113.836 73.4656 112.113 69.6218 111.375 64.4968L111.252 63.6427L111.129 62.3614V62.0767L106.701 76.0281H112.975V76.5976H99.8133V76.0281H106.209L111.129 60.6531C111.129 59.7989 111.006 58.8024 111.006 57.9482V51.3996C111.006 43.1426 105.717 38.4447 96.4922 38.4447H87.39V76.1705H95.2622V76.7399H64.6346V76.1705H72.3837L64.5116 51.2572H42.4942L34.622 75.8858H34.991C45.3232 73.8927 49.9973 64.7816 50.1203 55.2433H50.6123V76.8823H0.796387L37.8201 3.28137H22.9368C10.6366 3.28137 4.97847 14.2432 4.85546 25.205H4.48646V2.71192H49.3823L49.1363 3.28137L12.3586 76.1705H31.67C32.162 76.1705 32.654 76.1705 33.146 76.1705C33.515 76.1705 33.761 76.1705 34.13 76.0281H34.253L58.2385 0.149414H58.7305L77.6728 59.9413V3.28137H69.9237V2.71192H96.7382C109.653 2.71192 118.633 10.3994 118.633 21.3613C118.633 29.3335 112.482 36.0245 103.38 37.8752L101.658 38.1599L103.38 38.3023C108.915 39.0141 113.344 41.0072 116.419 44.1391L130.318 0.149414H130.81ZM120.232 50.5454L136.345 50.6878L125.521 16.6634L116.665 44.7086L117.157 45.278C118.51 46.7016 119.494 48.5523 120.232 50.5454ZM87.39 37.8752V3.28137H94.2782C103.503 3.28137 108.423 9.54528 108.423 21.5036C108.423 34.1738 105.594 38.0176 96.4922 38.0176C96.4922 37.8752 87.39 37.8752 87.39 37.8752ZM53.5644 16.521L42.7402 50.5454H64.3886L53.5644 16.521Z" fill="black"/>
</svg>
