<svg width="24" height="24" viewBox="0 0 24 24" fill="none" xmlns="http://www.w3.org/2000/svg">
<path d="M15.75 3.19995C13.6789 3.19995 12 4.87888 12 6.94995C12 9.02102 13.6789 10.7 15.75 10.7C17.8211 10.7 19.5 9.02102 19.5 6.94995C19.5 4.87888 17.8211 3.19995 15.75 3.19995Z" fill="#A67BDE"/>
<path d="M11.75 12.7C9.67893 12.7 8 14.3789 8 16.45V17.6382C8 18.3915 8.54588 19.0337 9.28927 19.1551C13.5681 19.8537 17.9319 19.8537 22.2107 19.1551C22.9541 19.0337 23.5 18.3915 23.5 17.6382V16.45C23.5 14.3789 21.8211 12.7 19.75 12.7H19.4091C19.2246 12.7 19.0413 12.7291 18.8659 12.7864L18.0004 13.069C16.5381 13.5465 14.9619 13.5465 13.4996 13.069L12.6341 12.7864C12.4587 12.7291 12.2754 12.7 12.0909 12.7H11.75Z" fill="#A67BDE"/>
</svg>
