<svg width="18" height="18" viewBox="0 0 18 18" fill="none" xmlns="http://www.w3.org/2000/svg">
<path d="M7.00542 3.09847C7.762 1.14108 8.14029 0.162392 8.75488 0.0267496C8.91649 -0.00891652 9.08351 -0.00891652 9.24511 0.0267496C9.85971 0.162392 10.238 1.14108 10.9946 3.09847C11.4248 4.2116 11.64 4.76816 12.0425 5.14671C12.1554 5.25289 12.278 5.34746 12.4085 5.42908C12.8737 5.72009 13.4545 5.77407 14.6161 5.88203C16.5824 6.06478 17.5656 6.15616 17.8659 6.73792C17.928 6.85841 17.9703 6.98886 17.9909 7.12385C18.0905 7.77566 17.3677 8.45808 15.9221 9.82292L15.5207 10.2019C14.8449 10.84 14.507 11.1591 14.3115 11.5572C14.1943 11.7961 14.1156 12.0533 14.0788 12.3186C14.0174 12.7609 14.1164 13.2237 14.3143 14.1494L14.385 14.4801C14.7399 16.1402 14.9173 16.9702 14.6958 17.3782C14.4968 17.7446 14.1303 17.9793 13.7254 17.9993C13.2747 18.0217 12.6396 17.4846 11.3694 16.4105C10.5325 15.7028 10.1141 15.3489 9.64957 15.2107C9.22508 15.0844 8.77492 15.0844 8.35043 15.2107C7.88592 15.3489 7.46749 15.7028 6.63062 16.4105C5.3604 17.4846 4.7253 18.0217 4.27456 17.9993C3.86968 17.9793 3.50317 17.7446 3.30419 17.3782C3.08267 16.9702 3.26012 16.1402 3.61503 14.4801L3.68574 14.1494C3.88365 13.2237 3.9826 12.7609 3.92119 12.3186C3.88436 12.0533 3.80574 11.7961 3.6885 11.5572C3.49304 11.1591 3.15513 10.84 2.4793 10.2019L2.07787 9.82292C0.632305 8.45808 -0.0904795 7.77566 0.00905864 7.12385C0.0296739 6.98886 0.0719515 6.85841 0.134134 6.73792C0.434373 6.15616 1.41755 6.06478 3.38391 5.88203C4.5455 5.77407 5.12629 5.72009 5.59155 5.42908C5.72204 5.34746 5.84461 5.25289 5.95751 5.14671C6.36005 4.76816 6.57517 4.2116 7.00542 3.09847Z" fill="#F8E329"/>
</svg>
