<svg width="20" height="20" viewBox="0 0 20 20" fill="none" xmlns="http://www.w3.org/2000/svg">
<path d="M8.00542 4.09847C8.762 2.14108 9.14029 1.16239 9.75488 1.02675C9.91649 0.991083 10.0835 0.991083 10.2451 1.02675C10.8597 1.16239 11.238 2.14108 11.9946 4.09847C12.4248 5.2116 12.64 5.76816 13.0425 6.14671C13.1554 6.25289 13.278 6.34746 13.4085 6.42908C13.8737 6.72009 14.4545 6.77407 15.6161 6.88203C17.5824 7.06478 18.5656 7.15616 18.8659 7.73792C18.928 7.85841 18.9703 7.98886 18.9909 8.12385C19.0905 8.77566 18.3677 9.45808 16.9221 10.8229L16.5207 11.2019C15.8449 11.84 15.507 12.1591 15.3115 12.5572C15.1943 12.7961 15.1156 13.0533 15.0788 13.3186C15.0174 13.7609 15.1164 14.2237 15.3143 15.1494L15.385 15.4801C15.7399 17.1402 15.9173 17.9702 15.6958 18.3782C15.4968 18.7446 15.1303 18.9793 14.7254 18.9993C14.2747 19.0217 13.6396 18.4846 12.3694 17.4105C11.5325 16.7028 11.1141 16.3489 10.6496 16.2107C10.2251 16.0844 9.77492 16.0844 9.35043 16.2107C8.88592 16.3489 8.46749 16.7028 7.63062 17.4105C6.3604 18.4846 5.7253 19.0217 5.27456 18.9993C4.86968 18.9793 4.50317 18.7446 4.30419 18.3782C4.08267 17.9702 4.26012 17.1402 4.61503 15.4801L4.68574 15.1494C4.88365 14.2237 4.9826 13.7609 4.92119 13.3186C4.88436 13.0533 4.80574 12.7961 4.6885 12.5572C4.49304 12.1591 4.15513 11.84 3.4793 11.2019L3.07787 10.8229C1.6323 9.45808 0.909521 8.77566 1.00906 8.12385C1.02967 7.98886 1.07195 7.85841 1.13413 7.73792C1.43437 7.15616 2.41755 7.06478 4.38391 6.88203C5.5455 6.77407 6.12629 6.72009 6.59155 6.42908C6.72204 6.34746 6.84461 6.25289 6.95751 6.14671C7.36005 5.76816 7.57517 5.2116 8.00542 4.09847Z" fill="white" stroke="#AAAAAA" stroke-width="2"/>
</svg>
