<svg width="110" height="84" viewBox="0 0 110 84" fill="none" xmlns="http://www.w3.org/2000/svg">
<path d="M54.4584 72.9734C54.4584 69.6013 56.8515 66.9786 59.6797 66.9786C62.508 66.9786 64.9011 69.7262 64.9011 72.9734C64.9011 76.2206 62.508 78.9683 59.6797 78.9683C56.8515 78.9683 54.4584 76.3455 54.4584 72.9734ZM75.8876 72.9734C75.8876 69.6013 78.2807 66.9786 81.1089 66.9786C84.046 66.9786 86.3303 69.7262 86.3303 72.9734C86.3303 76.2206 83.9372 78.9683 81.1089 78.9683C78.2807 79.0932 75.8876 76.3455 75.8876 72.9734ZM26.285 72.9734C26.285 69.6013 28.6781 66.9786 31.5063 66.9786C34.4433 66.9786 36.7276 69.7262 36.7276 72.9734C36.7276 76.2206 34.3345 78.9683 31.5063 78.9683C28.5693 79.0932 26.285 76.3455 26.285 72.9734ZM4.85575 72.9734C4.85575 69.6013 7.24886 66.9786 10.0771 66.9786C13.0141 66.9786 15.2984 69.7262 15.2984 72.9734C15.2984 76.2206 12.9053 78.9683 10.0771 78.9683C7.24886 79.0932 4.85575 76.3455 4.85575 72.9734ZM48.1493 62.3575H43.5806V83.4644H48.1493V62.3575ZM15.4072 83.4644H19.9759V62.3575H15.4072V64.106C13.8843 62.8571 12.0351 62.1077 9.9683 62.1077C4.74697 62.1077 0.504639 66.9786 0.504639 72.9734C0.504639 79.0932 4.74697 83.8391 9.9683 83.8391C12.0351 83.8391 13.8843 83.0897 15.4072 81.8408V83.4644ZM86.4391 83.4644H91.0077V62.3575H86.4391V64.106C84.9162 62.8571 83.0669 62.1077 81.0002 62.1077C75.7788 62.1077 71.5365 66.9786 71.5365 72.9734C71.5365 79.0932 75.7788 83.8391 81.0002 83.8391C83.0669 83.8391 84.9162 83.0897 86.4391 81.8408V83.4644ZM92.6394 76.5953C92.7482 80.8417 95.9027 83.8391 101.233 83.8391C105.584 83.8391 109.174 81.7159 109.174 76.97C109.174 73.5979 107.542 71.7245 103.843 70.8502L100.907 70.2258C99.0573 69.8511 97.7519 69.3515 97.7519 68.1026C97.7519 66.7288 99.0573 66.1043 100.58 66.1043C102.865 66.1043 103.843 67.4781 103.843 68.9768H108.412C108.195 64.8554 105.258 62.1077 100.58 62.1077C95.7939 62.1077 92.9657 65.1052 92.9657 69.1017C92.9657 73.8477 96.3378 74.7219 99.2748 75.3464L101.668 75.8459C103.408 76.2206 104.17 76.8451 104.17 77.9691C104.17 78.9683 103.3 80.0923 101.233 80.0923C98.1871 80.0923 97.3168 78.3438 97.2081 76.7202H92.6394V76.5953ZM36.7276 55.1137V63.9811C35.2047 62.7322 33.3555 61.9828 31.2887 61.9828C26.0674 61.9828 21.8251 66.8537 21.8251 72.8485C21.8251 78.9683 26.0674 83.7142 31.2887 83.7142C33.3555 83.7142 35.2047 82.9648 36.7276 81.7159V83.2146H41.2963V55.1137H36.7276ZM65.0098 55.1137V63.9811C63.487 62.7322 61.6377 61.9828 59.571 61.9828C54.3496 61.9828 50.1073 66.8537 50.1073 72.8485C50.1073 78.9683 54.3496 83.7142 59.571 83.7142C61.6377 83.7142 63.487 82.9648 65.0098 81.7159V83.2146H69.5785V55.1137H65.0098ZM12.2526 48.8691L15.4072 55.1137H36.7276L28.243 38.2532L12.2526 48.8691ZM48.1493 60.3592V55.1137H65.0098L47.0615 19.5193L31.0712 30.0103L43.5806 55.1137V60.3592H48.1493ZM71.7541 55.1137H93.1833L65.5537 0.160919L49.5634 10.7768L71.7541 55.1137Z" fill="black"/>
</svg>
