<svg width="79" height="88" viewBox="0 0 79 88" fill="none" xmlns="http://www.w3.org/2000/svg">
<path d="M27.7716 83.1478H55.8669C64.7258 83.1478 69.5349 74.6663 71.6441 69.5969L72.9097 65.9899H78.0563L68.185 87.6322H1.19501L2.96678 83.0503H5.49789C5.58226 83.0503 5.58226 83.0503 5.66663 83.0503C6.00411 83.0503 6.34159 83.0503 6.67907 83.0503H8.61959C11.8257 82.9528 15.2848 81.7829 17.6472 74.8613C17.9003 74.1789 18.069 73.5939 18.3222 73.1065L24.9874 53.414L10.6445 14.9063C10.307 14.3213 10.0539 13.5414 9.7164 12.7615C7.94462 7.98464 5.32915 6.52232 3.38863 6.03488H0.941895V0.965515H24.1437V6.03488H23.0469C22.9625 6.03488 22.8782 6.03488 22.8782 6.03488C20.9376 6.03488 18.9128 6.13237 20.1783 9.54444C20.2627 9.73942 20.2627 9.93439 20.347 10.0319L30.5558 37.3285L36.1243 20.853C36.7992 18.2209 35.7024 17.3435 34.6056 17.1485H31.8214L33.9307 11.4942H58.0605L55.9513 17.1485H52.1546C50.4672 17.6359 48.2736 19.1957 46.4174 23.4852L36.293 52.829L41.4396 66.4773L41.524 66.5748C41.7771 67.3547 42.1989 67.7447 42.7895 66.5748C42.7895 66.4773 42.8739 66.4773 42.8739 66.3798L63.0384 15.1012C63.2071 14.5163 63.4602 13.8339 63.7977 13.054C65.907 7.69217 63.7977 6.32734 62.1103 6.03488H59.1573V0.965515H78.5625V6.03488H75.3564C74.0909 6.32734 72.1504 7.20474 70.3786 10.2269L43.5489 78.5658L34.4369 78.3708L30.809 68.817L26.5904 81.1005C26.5904 81.198 26.5904 81.2955 26.5061 81.393C26.1686 82.7578 26.7592 83.1478 27.7716 83.1478Z" fill="#1B140F"/>
</svg>
