<svg width="110" height="84" viewBox="0 0 110 84" fill="none" xmlns="http://www.w3.org/2000/svg">
<path d="M54.7096 72.9734C54.7096 69.6013 57.1027 66.9786 59.9309 66.9786C62.7591 66.9786 65.1522 69.7262 65.1522 72.9734C65.1522 76.2206 62.7591 78.9683 59.9309 78.9683C57.1027 78.9683 54.7096 76.3455 54.7096 72.9734ZM76.1388 72.9734C76.1388 69.6013 78.5319 66.9786 81.3601 66.9786C84.2971 66.9786 86.5815 69.7262 86.5815 72.9734C86.5815 76.2206 84.1883 78.9683 81.3601 78.9683C78.5319 79.0932 76.1388 76.3455 76.1388 72.9734ZM26.5361 72.9734C26.5361 69.6013 28.9292 66.9786 31.7574 66.9786C34.6944 66.9786 36.9788 69.7262 36.9788 72.9734C36.9788 76.2206 34.5856 78.9683 31.7574 78.9683C28.8204 79.0932 26.5361 76.3455 26.5361 72.9734ZM5.10685 72.9734C5.10685 69.6013 7.49996 66.9786 10.3282 66.9786C13.2652 66.9786 15.5495 69.7262 15.5495 72.9734C15.5495 76.2206 13.1564 78.9683 10.3282 78.9683C7.49996 79.0932 5.10685 76.3455 5.10685 72.9734ZM48.4004 62.3575H43.8318V83.4644H48.4004V62.3575ZM15.6583 83.4644H20.227V62.3575H15.6583V64.106C14.1354 62.8571 12.2862 62.1077 10.2194 62.1077C4.99807 62.1077 0.755737 66.9786 0.755737 72.9734C0.755737 79.0932 4.99807 83.8391 10.2194 83.8391C12.2862 83.8391 14.1354 83.0897 15.6583 81.8408V83.4644ZM86.6902 83.4644H91.2589V62.3575H86.6902V64.106C85.1673 62.8571 83.3181 62.1077 81.2513 62.1077C76.03 62.1077 71.7877 66.9786 71.7877 72.9734C71.7877 79.0932 76.03 83.8391 81.2513 83.8391C83.3181 83.8391 85.1673 83.0897 86.6902 81.8408V83.4644ZM92.8906 76.5953C92.9994 80.8417 96.1539 83.8391 101.484 83.8391C105.835 83.8391 109.425 81.7159 109.425 76.97C109.425 73.5979 107.793 71.7245 104.095 70.8502L101.158 70.2258C99.3085 69.8511 98.0031 69.3515 98.0031 68.1026C98.0031 66.7288 99.3085 66.1043 100.831 66.1043C103.116 66.1043 104.095 67.4781 104.095 68.9768H108.663C108.446 64.8554 105.509 62.1077 100.831 62.1077C96.0451 62.1077 93.2169 65.1052 93.2169 69.1017C93.2169 73.8477 96.589 74.7219 99.526 75.3464L101.919 75.8459C103.66 76.2206 104.421 76.8451 104.421 77.9691C104.421 78.9683 103.551 80.0923 101.484 80.0923C98.4382 80.0923 97.568 78.3438 97.4592 76.7202H92.8906V76.5953ZM36.9788 55.1137V63.9811C35.4559 62.7322 33.6066 61.9828 31.5399 61.9828C26.3185 61.9828 22.0762 66.8537 22.0762 72.8485C22.0762 78.9683 26.3185 83.7142 31.5399 83.7142C33.6066 83.7142 35.4559 82.9648 36.9788 81.7159V83.2146H41.5474V55.1137H36.9788ZM65.261 55.1137V63.9811C63.7381 62.7322 61.8889 61.9828 59.8221 61.9828C54.6008 61.9828 50.3584 66.8537 50.3584 72.8485C50.3584 78.9683 54.6008 83.7142 59.8221 83.7142C61.8889 83.7142 63.7381 82.9648 65.261 81.7159V83.2146H69.8297V55.1137H65.261ZM12.5037 48.8691L15.6583 55.1137H36.9788L28.4941 38.2532L12.5037 48.8691ZM48.4004 60.3592V55.1137H65.261L47.3127 19.5193L31.3223 30.0103L43.8318 55.1137V60.3592H48.4004ZM72.0052 55.1137H93.4345L65.8049 0.160919L49.8145 10.7768L72.0052 55.1137Z" fill="black"/>
</svg>
