<svg width="35" height="25" viewBox="0 0 35 25" fill="none" xmlns="http://www.w3.org/2000/svg">
<path d="M34.2276 3.91486C34.0268 3.15818 33.6352 2.46834 33.0918 1.91403C32.5483 1.35972 31.8719 0.960288 31.13 0.755501C28.4139 0 17.4825 0 17.4825 0C17.4825 0 6.55061 0.0228686 3.83451 0.77837C3.09259 0.983169 2.41622 1.38263 1.87275 1.93696C1.32929 2.49129 0.937689 3.18116 0.736953 3.93786C-0.0846041 8.85992 -0.403301 16.36 0.759512 21.0851C0.960269 21.8418 1.35188 22.5317 1.89534 23.086C2.43881 23.6403 3.11516 24.0397 3.85706 24.2445C6.57316 25 17.5048 25 17.5048 25C17.5048 25 28.4364 25 31.1523 24.2445C31.8943 24.0397 32.5706 23.6403 33.1141 23.086C33.6576 22.5317 34.0492 21.8418 34.25 21.0851C35.1166 16.1561 35.3836 8.66065 34.2276 3.91486Z" fill="#FF0000"/>
</svg>
