<svg width="30" height="26" viewBox="0 0 30 26" fill="none" xmlns="http://www.w3.org/2000/svg">
<path d="M26.9288 6.47251C26.947 6.75474 26.947 7.03672 26.947 7.32145C26.947 15.9958 20.7555 26 9.43453 26V25.995C6.09002 26 2.81483 24.9782 0 23.0517C0.486328 23.1142 0.975 23.1455 1.46484 23.1467C4.23682 23.1491 6.92907 22.1575 9.10898 20.3312C7.8246 20.3053 6.57991 19.852 5.54893 19.0346C4.51795 18.2172 3.75223 17.0766 3.35883 15.7723C4.28156 15.9623 5.23219 15.923 6.13781 15.6591C3.26625 15.0403 1.20047 12.3496 1.20047 9.22455V9.1413C2.05648 9.64994 3.01454 9.93174 3.99398 9.96299C1.28906 8.03514 0.455859 4.19769 2.08898 1.19767C3.63419 3.22568 5.56209 4.88432 7.74746 6.06587C9.93283 7.24741 12.3268 7.92543 14.7738 8.05589C14.5299 6.93567 14.566 5.76678 14.8785 4.66611C15.191 3.56544 15.769 2.57156 16.5546 1.78387C19.0336 -0.701684 22.9324 -0.574193 25.2626 2.0686C26.641 1.77831 27.9628 1.23928 29.1712 0.474725C28.7117 1.99478 27.7503 3.2851 26.4656 4.10569C27.6857 3.95226 28.8772 3.6038 30 3.07202C29.174 4.39133 28.134 5.54287 26.9288 6.47251Z" fill="#1D9BF0"/>
</svg>
